<svg xmlns="http://www.w3.org/2000/svg" xmlns:xlink="http://www.w3.org/1999/xlink" width="160" height="160" viewBox="0 0 160 160">
  <defs>
    <filter id="_8009ce568730ac772e7697e0d9ea7fd7">
      <feOffset dy="5" input="SourceAlpha"/>
      <feGaussianBlur stdDeviation="5" result="blur"/>
      <feFlood flood-color="#1c1c93" result="color"/>
      <feComposite operator="out" in="SourceGraphic" in2="blur"/>
      <feComposite operator="in" in="color"/>
      <feComposite operator="in" in2="SourceGraphic"/>
    </filter>
    <clipPath id="clip-sales-state-icon">
      <rect width="160" height="160"/>
    </clipPath>
  </defs>
  <g id="sales-state-icon" clip-path="url(#clip-sales-state-icon)">
    <g data-type="innerShadowGroup">
      <path id="_8009ce568730ac772e7697e0d9ea7fd7-2" data-name="8009ce568730ac772e7697e0d9ea7fd7" d="M126.382,61.963a.764.764,0,0,0,.284-.306.917.917,0,0,0,0-.437,2.183,2.183,0,0,0-.284-.327h-.131a.415.415,0,0,0,0-.262.262.262,0,0,0,0-.2V60.26a.738.738,0,0,0-.218-.633.393.393,0,0,0-.437,0,.83.83,0,0,0,0-.218,1.4,1.4,0,0,0-.131-.24.437.437,0,0,0-.175-.458c-.153-.109-.306,0-.437,0l-.175.131.153-.24a.14.14,0,0,0-.131-.131v-.109a1.505,1.505,0,0,0,0-.393.676.676,0,0,0-.109-.218.415.415,0,0,0,0-.175.829.829,0,0,0-.262-.284.524.524,0,0,0-.218-.262v-.458a.851.851,0,0,0-.349-.327.611.611,0,0,0-.284,0v-.109h-.131v-.153a.24.24,0,0,0,.153-.2.7.7,0,0,0,0-.437.742.742,0,0,0,.131-.437.437.437,0,0,0-.153-.218.677.677,0,0,0,0-.262v-.109a.9.9,0,0,0,0-.349.808.808,0,0,0-.284-.262h-.131a.72.72,0,0,0,0-.218,1.616,1.616,0,0,0-.2-.262.808.808,0,0,0-.153-.262l-.917-.808a.589.589,0,0,0-.175-.153.306.306,0,0,0-.24,0l-.109-.153v-.175a.763.763,0,0,0,0-.175.524.524,0,0,0-.175-.24h-.218L119.287,34.5a.24.24,0,0,0,0-.2.218.218,0,0,0-.153,0,.524.524,0,0,0-.131-.2.48.48,0,0,0-.458,0l-.153.131a.546.546,0,0,0-.153-.175.589.589,0,0,0-.415,0,.7.7,0,0,0-.349.306.96.96,0,0,0-.437,0,.458.458,0,0,0-.262.175h-.131a.24.24,0,0,0-.218,0h-.153a.284.284,0,0,0-.24,0l-.568-.393h-.175a.24.24,0,0,0,0-.109.393.393,0,0,0-.131-.393c-.175-.131-.458,0-.5,0a.5.5,0,0,0-.175.2.458.458,0,0,0-.262-.153.415.415,0,0,0-.262-.24h-.2a.262.262,0,0,0-.218,0l-.262-.262a.655.655,0,0,0-.458,0l-.131-.109v-.218l-.24.153.175-.218a.5.5,0,0,0-.262-.218.458.458,0,0,0-.306,0,.371.371,0,0,0-.306,0,.284.284,0,0,0-.131.153.262.262,0,0,1,0-.109.589.589,0,0,0-.524-.109.437.437,0,0,0-.175,0,1.026,1.026,0,0,0-.109-.218.677.677,0,0,0-.2-.153.306.306,0,0,1-.131-.153.568.568,0,0,0-.218-.284.7.7,0,0,0-.437,0H109.7a.568.568,0,0,0-.2-.284.284.284,0,0,0-.262,0,.262.262,0,0,0,0-.109.829.829,0,0,0-.284-.218.917.917,0,0,0-.327,0h-.306a.458.458,0,0,0-.262-.109.5.5,0,0,0-.568.546v.153a.415.415,0,0,0-.262.175.32.32,0,0,0-.437.2h-.633a.48.48,0,0,0-.2-.153.546.546,0,0,0-.349,0h-.153a.393.393,0,0,0,0-.218.7.7,0,0,0-.306-.24.939.939,0,0,0-.437,0,.546.546,0,0,0-.327.218v.153a.371.371,0,0,0-.262,0,.415.415,0,0,0-.2.2.371.371,0,0,0-.262-.131.611.611,0,0,0-.437.262.437.437,0,0,0,0,.24.349.349,0,0,0-.153,0,.48.48,0,0,0-.72.131.437.437,0,0,0-.175-.175.546.546,0,0,0-.415,0,.458.458,0,0,0-.218.24.437.437,0,0,0-.24,0c-.131,0-.2.131-.262.24h-.284a.458.458,0,0,0-.589-.306.349.349,0,0,0-.2.153h-.131a1,1,0,0,0-.306.153.284.284,0,0,0,0,.153s-.306.131-.284.371a.327.327,0,0,0,.153.218v.109h-.153v-.109a.917.917,0,0,0-.327-.131.568.568,0,0,0-.306.109,1.266,1.266,0,0,0-.218.262.917.917,0,0,0,0,.349.741.741,0,0,0,0,.2.437.437,0,0,0,0-.175l-.24-.2-.153-.175a.371.371,0,0,0-.2-.262.633.633,0,0,0-.48,0h-.175a.917.917,0,0,0,0-.218.458.458,0,0,0-.284-.24.524.524,0,0,0-.327,0l-.109-.109a.524.524,0,0,0-.633-.458.546.546,0,0,0-.458-.175h-.109a.873.873,0,0,0-.437,0,.5.5,0,0,0-.327.306.633.633,0,0,0,0,.284.677.677,0,0,1,0,.2h-.131a.393.393,0,0,0,0-.218.611.611,0,0,0-.284-.24.7.7,0,0,0-.349,0,.458.458,0,0,0-.327.175.327.327,0,0,1,0-.131v-.2a.437.437,0,0,0,0-.24.677.677,0,0,0-.218-.415.568.568,0,0,0-.458,0,.611.611,0,0,0-.175.131h-.153c-.153,0-.262.131-.349.262a.567.567,0,0,0,0,.327,1.331,1.331,0,0,0,0,.262v.218a.393.393,0,0,0-.284,0,.415.415,0,0,0,0,.327.415.415,0,0,0-.284.131.546.546,0,0,0,0,.437.415.415,0,0,0,.131.175v.24h-.175a.24.24,0,0,1,0-.131V33.8a.5.5,0,0,0,.218-.284.808.808,0,0,0,0-.458l-.153-.24a.589.589,0,0,0-.458-.437.655.655,0,0,0-.458,0s-.2.153-.218.284a.306.306,0,0,0,0,.2l-.218-.109a.764.764,0,0,0-.437.109.917.917,0,0,0-.218.306v.218h-.131v-.109a.655.655,0,0,0,0-.218.939.939,0,0,0,0-.458.568.568,0,0,0-.349-.218,1.07,1.07,0,0,0-1.921.131c-.131,0-.2.153-.284.24V32.6a.939.939,0,0,0-.131-.393.983.983,0,0,0-.284-.24h-.2a.742.742,0,0,0-.262-.131.633.633,0,0,0-.568.458.5.5,0,0,0-.437.327,1.069,1.069,0,0,0-.153.24V33a.2.2,0,0,0-.131,0l-.109.109v.109l-.153-.153a.546.546,0,0,0-.306-.131.415.415,0,0,0,0-.284.2.2,0,0,0,0-.109.633.633,0,0,0,0-.415.677.677,0,0,0-.327-.327.873.873,0,0,0-.48,0,.48.48,0,0,0-.153.131h-.327l-.131-.131v-.131a.524.524,0,0,0,0-.2l-.24-.153H82.7a.677.677,0,0,0,.109-.218,1.026,1.026,0,0,0,0-.437.7.7,0,0,0-.415-.327.5.5,0,0,0-.437.109.393.393,0,0,0,0,.306h-.153a.677.677,0,0,0-.24-.175.96.96,0,0,0-.349,0H80.19s0-.131-.175-.175a.982.982,0,0,0-.393,0,.9.9,0,0,0-.393,0,.443.443,0,0,0-.218.524v.131a.327.327,0,0,0-.2,0,.524.524,0,0,0-.2.175l-.262.087L78.2,31.1v-.153a1.244,1.244,0,0,0-.175-.284.829.829,0,0,0-.349-.262,1,1,0,0,0-.349,0,.349.349,0,0,0-.262,0,.677.677,0,0,0-.349.218v.153h-.371a.9.9,0,0,0-.284-.218.829.829,0,0,0-.48,0l-.677-.218h-.153a.9.9,0,0,0-.24-.153.829.829,0,0,0-.5,0,.524.524,0,0,0-.262.153.524.524,0,0,0-.327-.153.371.371,0,0,0-.218,0,.109.109,0,0,0-.109,0,.284.284,0,0,0-.306,0,.808.808,0,0,0,0-.327.851.851,0,0,0-.175-.218,1.7,1.7,0,0,1,0-.2.72.72,0,0,0,0-.371.458.458,0,0,0-.24-.175.524.524,0,0,0,0-.218.546.546,0,0,0,0-.262.568.568,0,0,0-.262-.24.655.655,0,0,0-.349,0,.349.349,0,0,0,0-.218.461.461,0,0,0-.83-.065.742.742,0,0,0-.153.415.48.48,0,0,0,0,.284l-1.157-.437A.24.24,0,0,0,69.494,28a.589.589,0,0,0-.415,0,.48.48,0,0,0-.48,0,.349.349,0,0,0-.153.306v.109h-.48V28.28l-.7-.131-.2-.131h-.153l-.2-.153V27.6l-.262-.24h-.109V27.21c0-.153-.175-.218-.2-.218l-.218-.131-.109.24v-.284a.633.633,0,0,0-.371,0,.284.284,0,0,0-.2.131L64.582,6.014a.262.262,0,0,0-.262-.284l-26.2.393h-.306a.262.262,0,0,0-.262.262L37.3,55.436,4.857,54.344a2.62,2.62,0,0,0-.437,0s-.284.109-.349.284a.524.524,0,0,0,0,.327v.175a.306.306,0,0,0,0,.153.437.437,0,0,0-.175.458.5.5,0,0,0,.24.349.7.7,0,0,0,0,.437h.131a.262.262,0,0,0,0,.2.371.371,0,0,0,.24,0l.24.109a1.659,1.659,0,0,0,.2.393.633.633,0,0,0,.458.262.393.393,0,0,0,.306-.2l.175.131h.437V57.6l.131.175v.437a.764.764,0,0,0,.131.2v.262a1.4,1.4,0,0,1,0,.153.546.546,0,0,0,.131.327.458.458,0,0,0,.262.153.437.437,0,0,0,0,.153l.109.175a.24.24,0,0,1,0,.131.546.546,0,0,0,0,.262,1,1,0,0,0,.982.873.764.764,0,0,0,.24,0v.131a.786.786,0,0,0,.306.218h.2l.131.109a.677.677,0,0,0,.306.2.48.48,0,0,0,.306,0h.131a.786.786,0,0,0,.218.24.5.5,0,0,0,.24,0,.524.524,0,0,0,0,.306.611.611,0,0,0,.262.218.524.524,0,0,0,.2.175.546.546,0,0,0,.262,0,.415.415,0,0,0,0,.153l.175.327a.655.655,0,0,0,.175.175.611.611,0,0,0,.437.48H11.8l.131.153.393.2h.546a.458.458,0,0,0,.131.175.437.437,0,0,0,.284,0l.131.2a.655.655,0,0,0,0,.284,1,1,0,0,0,.306.437.633.633,0,0,0,.284,0v.262l.2.262a1.877,1.877,0,0,0,.393.349h.218a.546.546,0,0,0,.109.371.5.5,0,0,0,.371,0,.72.72,0,0,0,.24.2h.262a.437.437,0,0,0,.327.2.24.24,0,0,0,.175,0l.218.109a.48.48,0,0,0,.218.2.677.677,0,0,0,.284,0,.786.786,0,0,0,0,.24,1.135,1.135,0,0,0,.284.262,1.223,1.223,0,0,0,.327.175h.349v.109a.437.437,0,0,0,0,.24.96.96,0,0,0,.284.393.633.633,0,0,0,.349,0l.131.262v.677a.524.524,0,0,1,0,.2.458.458,0,0,0,0,.175.633.633,0,0,0,0,.2v.109a.589.589,0,0,0,0,.284.546.546,0,0,0,.2.371,1.135,1.135,0,0,0,.284.131.349.349,0,0,0,0,.284.371.371,0,0,0,.262.2.437.437,0,0,1,.131.153.415.415,0,0,0,0,.393.393.393,0,0,0,.327.153s0,0,0,.131v.218a.939.939,0,0,0,.2.218v.284a.764.764,0,0,0,0,.306.546.546,0,0,0,.131.306h-.131a.72.72,0,0,0-.131.306,1.091,1.091,0,0,0,0,.458.764.764,0,0,0,.175.262.458.458,0,0,0,0,.262.764.764,0,0,0,.131.371s0,.262,0,.393a.764.764,0,0,0,0,.24,1.309,1.309,0,0,0,.175.175.524.524,0,0,1,0,.2.917.917,0,0,0,0,.218.677.677,0,0,0,.24.2h.109a1.135,1.135,0,0,1,.153.393v.131a.9.9,0,0,0,0,.349.9.9,0,0,0,0,.2q0,.1,0,.2a1.528,1.528,0,0,0,.218.349l.24.175h.131v.109a.677.677,0,0,0,.2.24l.24.131h.109a.961.961,0,0,0,.2.24.83.83,0,0,0,.218,0,.851.851,0,0,0,.24.131.589.589,0,0,0,.284,0h.175l2.729,3.536a1.069,1.069,0,0,1,.175.284.568.568,0,0,0,.109.262s.175.109.2,0a.5.5,0,0,0,0,.24,1.309,1.309,0,0,0,.175.175.7.7,0,0,0,.218.218.546.546,0,0,0,.262,0l.109.131.175.175h.2a.764.764,0,0,1,.2.131.327.327,0,0,1,.131,0,.72.72,0,0,0,.284.153h1.681v.153a1.353,1.353,0,0,0,.175.262.851.851,0,0,0,.306.218,1,1,0,0,0,.306.153h.175a.589.589,0,0,0,.218.175.567.567,0,0,0,.327,0,.524.524,0,0,0,.262.153.589.589,0,0,0,.306,0v.131l.2.131a.524.524,0,0,0,.131.24.458.458,0,0,0,.218.131v.109a.437.437,0,0,0,.153.2.72.72,0,0,0,.349.109H33.1a.808.808,0,0,0,.349,0,.437.437,0,0,0,.24.131l.153.153a.9.9,0,0,0,.415,0h.677a1.288,1.288,0,0,0,.415.109.9.9,0,0,0,.415-.2.961.961,0,0,0,0-.327l.109-.131a2.858,2.858,0,0,0,.109-.327.284.284,0,0,0,0-.131h.109a.939.939,0,0,0,.306-.175.546.546,0,0,0,0-.284.437.437,0,0,0,.131-.2.393.393,0,0,0,0-.218h.2a.567.567,0,0,0,.24-.153h2.1a.677.677,0,0,0,.284-.175.7.7,0,0,0,.131-.48.5.5,0,0,0-.262-.262.778.778,0,0,1,.131-.327v-.2a1.113,1.113,0,0,0,.327-.393,1.048,1.048,0,0,0,.109-.371v-.24a1,1,0,0,1,0-.284q0-.1,0-.2v-.262a.393.393,0,0,1,0-.131,1.136,1.136,0,0,0,.2-.262.676.676,0,0,0,0-.218.524.524,0,0,0,.306-.24.437.437,0,0,0,0-.371.873.873,0,0,0,.24-.306.633.633,0,0,0,0-.284v-.153a.611.611,0,0,0,.284,0,.48.48,0,0,0,.306-.175.349.349,0,0,0,0-.153h.131a.415.415,0,0,0,.2,0,.655.655,0,0,0,.415-.153l.153-.218H42.4a.458.458,0,0,0,.306.153.611.611,0,0,0,.415-.2.9.9,0,0,0,.2-.415v-.2a1.506,1.506,0,0,0,0-.218l.175-.153h0l.109.109.262.175a1.157,1.157,0,0,0,.655.153.546.546,0,0,0,.109.175,1,1,0,0,0,.393.218h.349a.393.393,0,0,0,.153,0,.764.764,0,0,0,.393,0h.677a.371.371,0,0,0,.284.2.327.327,0,0,0,.306-.131.458.458,0,0,0,.262,0h.393a.458.458,0,0,0,.306,0,.2.2,0,0,0,.153,0,.393.393,0,0,0,.175.153,1.31,1.31,0,0,0,.5,0h.24a.546.546,0,0,0,.284,0,.458.458,0,0,0,.284-.2h.437a.524.524,0,0,0,.458.131.48.48,0,0,0,.284-.131.349.349,0,0,0,.306,0v.109a.917.917,0,0,0,.153.284.589.589,0,0,0,.109.306.677.677,0,0,0,.437.2.327.327,0,0,0,0,.218.568.568,0,0,0,.284.5.415.415,0,0,0,.371,0,.589.589,0,0,0,0,.437.72.72,0,0,0,.415.327h.458v.153a.917.917,0,0,0,.349.24h.7a.327.327,0,0,0,0,.153,1.463,1.463,0,0,0,.2.5.917.917,0,0,0,.349.24h.153l.109.109h.2a.327.327,0,0,1,.153,0l.153.153h.2a.786.786,0,0,0,.218.262.742.742,0,0,0,.327.131H56.9a1.462,1.462,0,0,1,.153.24,1.113,1.113,0,0,0,0,.284.742.742,0,0,0,.24.371h.153v.153a.7.7,0,0,0,.284.153h.153v2.685a1.026,1.026,0,0,0,0,.349.764.764,0,0,1,0,.131.371.371,0,0,1,0,.109,1.245,1.245,0,0,1,0,.284.524.524,0,0,0,0,.2.9.9,0,0,0,0,.262.415.415,0,0,0,0,.262.524.524,0,0,0,.349.153.873.873,0,0,0,0,.284.284.284,0,0,0,0,.131.48.48,0,0,0,.284.24v.175a1.244,1.244,0,0,0,0,.349l.153.131a.786.786,0,0,0,0,.24,1.31,1.31,0,0,0,.2.633.786.786,0,0,0,.327.175h.175a.764.764,0,0,0,.131.349.742.742,0,0,0,.262.131.371.371,0,0,0,0,.153.96.96,0,0,0,0,.349.786.786,0,0,0,.284.327,1.62,1.62,0,1,0,3.034,1.135.982.982,0,0,0,0,.437.5.5,0,0,0,.2.24v.175l.131.131a.829.829,0,0,0,0,.327,1.31,1.31,0,0,0,.2.284.458.458,0,0,0,.24.262.349.349,0,0,0,.262,0,.306.306,0,0,0,0,.2.568.568,0,0,0,.306.327h.175a.393.393,0,0,0,.218.153.655.655,0,0,0,.262,0,.48.48,0,0,1,.218,0h.109v.109q-.005.109,0,.218a1.507,1.507,0,0,0,.24.284.437.437,0,0,0,.24,0v.175c0,.065,0,.262.153.327s.153.24.262.284a.546.546,0,0,0,.327,0,.524.524,0,0,1,0,.2.568.568,0,0,0,0,.262c0,.153.218.262.262.306a.568.568,0,0,0,0,.458l.2.131a.568.568,0,0,0,0,.306c0,.218.306.349.306.371a.393.393,0,0,0,.131.2.589.589,0,0,0,.349,0,.546.546,0,0,0,.131.284.415.415,0,0,0,.262,0,.459.459,0,0,0,0,.131.611.611,0,0,0,.153.2v.131a.546.546,0,0,0,.24.262.415.415,0,0,0,.327,0,.7.7,0,0,0,.5.327.5.5,0,0,0,.24,0,.437.437,0,0,0,.24.24.306.306,0,0,0,.306,0,.327.327,0,0,0,0,.218.546.546,0,0,0,0,.153.5.5,0,0,0,0,.393.524.524,0,0,0,.327.262.9.9,0,0,0,0,.349,1.093,1.093,0,0,0,1.222,1.812v.153a.349.349,0,0,0,0,.153.612.612,0,0,0,0,.2.5.5,0,0,0-.218.153.568.568,0,0,0,0,.48c0,.153.284.218.393.24,0,.131,0,.437.349.458h.175a.546.546,0,0,0,0,.262.284.284,0,0,0,.131.175.633.633,0,0,1,0,.2.764.764,0,0,0-.109.175.306.306,0,0,0,0,.24.458.458,0,0,0,0,.153.436.436,0,0,0,0,.24.415.415,0,0,0,0,.175,1.223,1.223,0,0,0,0,.284h.284l-.262.109a.851.851,0,0,0,.131.393.546.546,0,0,0,.306.131.458.458,0,0,0,.153.284.72.72,0,0,0,.131.415.462.462,0,0,1,.546.48.589.589,0,0,0,.393.175h.153a.437.437,0,0,0,0,.218.96.96,0,0,0,.175.24v.153a.546.546,0,0,0,0,.262.48.48,0,0,0,.175.284h.175a.67.67,0,0,0,.131.546.894.894,0,0,0,0,.175.212.212,0,0,0,.131.175v.96h0a.742.742,0,0,0,0,.218,1.4,1.4,0,0,0,.153.524.524.524,0,0,0,.24.175h.175a.7.7,0,0,1,.153.131H76a.677.677,0,0,0-.175.24.764.764,0,0,0,.153.5.262.262,0,0,0,.2.393.5.5,0,0,0,.24.24.589.589,0,0,0,.458,0h.546a.349.349,0,0,0,.2.2.327.327,0,0,0,.284,0,.808.808,0,0,0,.327.109.327.327,0,0,0,.218,0,.764.764,0,0,0,.262,0,.524.524,0,0,0,.218-.131.546.546,0,0,0,.218.327.458.458,0,0,0,.24,0,.524.524,0,0,0,.131.24.327.327,0,0,0,.24,0s0,.2.153.24a.306.306,0,0,0,.262,0,.327.327,0,0,0,0,.262.415.415,0,0,0,.415,0,.48.48,0,0,0,.262-.131.327.327,0,0,1,.175,0,.415.415,0,0,0,.24.175h.393a.611.611,0,0,0,.327,0h.153a1.092,1.092,0,0,0,.284.24h.153a.677.677,0,0,0,.218.218.7.7,0,0,0,.306,0,.568.568,0,0,0,.262.306.655.655,0,0,0,.393,0,.5.5,0,0,0,.306.371.48.48,0,0,0,.349,0,.393.393,0,0,0,.306.175.262.262,0,0,0,.218,0h.131a.655.655,0,0,0,.415,0,.284.284,0,0,0,.131-.109h.24a.546.546,0,0,0,.415,0,.458.458,0,0,0,.24-.218h.349a.655.655,0,0,0,.349,0,.415.415,0,0,0,.327,0h.131l.218.153a.982.982,0,0,0,.48,0,.415.415,0,0,0,.131.153.786.786,0,0,0,.437.109h.808l.153.109a1.2,1.2,0,0,1,.218.24v.131a.96.96,0,0,0,1.353.96.83.83,0,0,0,.327,0,.48.48,0,0,0,.109.24,1.026,1.026,0,0,0,.458.24h.284a.873.873,0,0,0,.48.371h.175a.7.7,0,0,0,.306,0,1.157,1.157,0,0,0,.349-.393.961.961,0,0,0,0-.437v-.131h.131l.2-.153a.24.24,0,0,0,.175,0,.393.393,0,0,0,.175-.153h.371a.524.524,0,0,0,.24-.131h.393a.611.611,0,0,0,.393,0,.808.808,0,0,0,.175-.437.7.7,0,0,0-.175-.458c.131-.131,0-.349,0-.524v-.677a12.045,12.045,0,0,0-.24-1.353,5.429,5.429,0,0,0-.218-.7l-.2-.589a2.069,2.069,0,0,0-.131-.437l-.393-.83v-.218a7.071,7.071,0,0,1-.284-.72l-.131-.306c0-.2-.2-.415-.24-.546s-.218-.589-.284-.786l-.262-.982a13.464,13.464,0,0,0-.24-1.353,10.614,10.614,0,0,1,0-1.179v-.9c0-.218.131-1,.153-1.2.109-.7.218-1.2.284-1.441s.262-.764.371-1.07c.109-.327.371-.96.5-1.266v-.131c.109-.218.24-.568.327-.72l.262-.437.2-.284.131-.218.2-.327A.393.393,0,0,0,96,98.942a.568.568,0,0,0,0-.349H96.1a.7.7,0,0,0,.327-.415l.131-.284v-.2a2.183,2.183,0,0,1,.24-.371l.24-.24.175-.175.371-.415.371-.393.437-.48a14.122,14.122,0,0,1,1.113-.939,8.4,8.4,0,0,1,.742-.568l.415-.218a2.816,2.816,0,0,0,.72-.393s.327-.327.327-.546a.306.306,0,0,0,0-.153H102s.262-.24.349-.306l.153-.175.153-.153h.262l.284-.24.327-.24.546-.306.218-.109.306-.153.306-.2.175-.109.808-.458.327-.175.589-.306.5-.393.415-.306.327-.2.371-.218.589-.437.306-.24.5-.349.153-.109.24-.2h.284l.306-.131.218-.218.153-.175v-.131a2.053,2.053,0,0,1,.218-.218l.175-.175.24-.24.5-.48.24-.24a1.943,1.943,0,0,0,.371-.327l.306-.371.175-.218c0-.131.284-.349.371-.458l.349-.24.24-.2.24-.2.284-.262.349-.284.284-.2.371-.306.153-.131a.808.808,0,0,1,.2-.2.829.829,0,0,0,.306-.24.568.568,0,0,0,0-.546v-.2l.327-.284.371-.306.458-.306.371-.175.349-.175.284-.175.327-.175.349-.175.415-.218.48-.284.349-.2.764-.437.371-.2.437-.218a2.183,2.183,0,0,1,.5-.153H124.2a3.4,3.4,0,0,0,.48-.218,1,1,0,0,0,.153-.153.24.24,0,0,0,0-.327,1.9,1.9,0,0,0-.175-.306l-.262-.2h-.131l-.065-1.2h-.044a.851.851,0,0,0,.175-.218h.109a1.44,1.44,0,0,0,.306-.327,2.183,2.183,0,0,0,.131-.48V73.38a1.616,1.616,0,0,1,.175-.327v-.131l.109-.153.131-.153a.507.507,0,0,0,.2-.611h.131a1.135,1.135,0,0,0,0-.655.982.982,0,0,0-.218-.306.546.546,0,0,0,0-.327.9.9,0,0,0,0-.371h-.24l.218-.175.022-.546a1.725,1.725,0,0,0-.284-.284v-.349a1.157,1.157,0,0,1,.24-.284.589.589,0,0,0,.262-.218.7.7,0,0,0,0-.371,1.4,1.4,0,0,0-.131-.24.829.829,0,0,0,0-.327l-.175-.175V67.2a.611.611,0,0,0,.262-.218.546.546,0,0,0,0-.371V66.5h.175a.917.917,0,0,0,.262-.306.96.96,0,0,0,0-.349v-.262h0a.611.611,0,0,0,.131-.2.306.306,0,0,0,0-.24l.109-.109a.961.961,0,0,0,.131-.349,1.66,1.66,0,0,0,0-.327.35.35,0,0,0,0-.175v-.131a.458.458,0,0,0,.284-.175.568.568,0,0,0,0-.5,3.391,3.391,0,0,0-.284-1.419Zm-9.976,17.7-.24.24s-.153.153-.153.24c-.262,0-.349.327-.371.437a.458.458,0,0,0,0,.262v-.131a2.355,2.355,0,0,0-.175-.175.917.917,0,0,0-.131-.568.72.72,0,0,0-.284-.2.437.437,0,0,0,0-.437.568.568,0,0,0-.5-.175h-.437a.677.677,0,0,0,.175-.24.655.655,0,0,0,0-.524.415.415,0,0,0-.153-.131V78.16a.72.72,0,0,0,.437.24.7.7,0,0,0,.415-.2,1.179,1.179,0,0,0,.306-.349.83.83,0,0,0,0-.327l.153-.2.284-.306h.153a2.314,2.314,0,0,1,.262.393v.568a.9.9,0,0,1,0,.218.742.742,0,0,1,0,.24l-.153.24a.611.611,0,0,0-.306.808.9.9,0,0,0,.611.262,1.266,1.266,0,0,0,.458-.153h.218a.982.982,0,0,0-.262.262v.153ZM114.223,77.287ZM100.907,92.568a.371.371,0,0,0-.131.24h-.153a.48.48,0,0,0-.24,0,.764.764,0,0,0-.284.175l-.415.218a.415.415,0,0,0-.218,0,1.092,1.092,0,0,0-.24.218.59.59,0,0,0-.218.175.524.524,0,0,0-.131.175h-.153a.393.393,0,0,0-.131.2H98a.72.72,0,0,0,0-.48.415.415,0,0,0-.284-.262l.284.415a.764.764,0,0,0,0-.437.48.48,0,0,0,0-.218V92.83h.284a.349.349,0,0,0,0,.153.633.633,0,0,0,0,.327.764.764,0,0,0,.5.262.655.655,0,0,0,.393-.175h.109a.5.5,0,0,0,.5-.24l.284-.218.415-.218h.218l.349-.153a.59.59,0,0,0-.065-.087ZM97.152,95.3Zm-3.034,5.436h0Zm0-.546a.568.568,0,0,0-.153.24.655.655,0,0,0-.327-.24h-.393l-.327-.218c-.2-.131-.306-.218-.327-.284a.459.459,0,0,1,0-.153,1.55,1.55,0,0,1,.2-.371l.284-.24h.458a.764.764,0,0,0,0,.284.742.742,0,0,0,.633.262s.153,0,.284-.218a.218.218,0,0,0,.175,0,1,1,0,0,0-.153.153l-.218.349v.131Zm-.851,11.853a.48.48,0,0,0,0,.175v.284a1.026,1.026,0,0,0,0,.371.611.611,0,0,0,.24.284v.327l.175.2a.284.284,0,0,1,0,.109,1.245,1.245,0,0,0,0,.284,2.575,2.575,0,0,0,.218.415v.131a2.924,2.924,0,0,1,.153.393,1.551,1.551,0,0,1,0,.371v.873a4.866,4.866,0,0,1,0,.589.742.742,0,0,0,0,.218.655.655,0,0,0,0,.218h-.568a.765.765,0,0,0,0-.131.677.677,0,0,0-.109-.218.306.306,0,0,0,0-.131.742.742,0,0,0,0-.415.15.15,0,0,0-.153-.153.415.415,0,0,0,0-.2.568.568,0,0,0-.24-.546h-.2a.415.415,0,0,0,.218-.327.524.524,0,0,0-.327-.458.371.371,0,0,0-.218,0v-.131a.5.5,0,0,0-.306-.437.349.349,0,0,0,0-.2.393.393,0,0,0-.2-.131.7.7,0,0,0,0-.2,2.183,2.183,0,0,0,0-.415,2.314,2.314,0,0,0,0-.393l-.175-.284v-.96l-.2-.48a2.6,2.6,0,0,0-.175-.437l-.371-.48a1.135,1.135,0,0,0-.24-.218v-.175a1.921,1.921,0,0,0,0-.5.808.808,0,0,0-.109-.24v-.677c0-.131,0,0,.131,0a.546.546,0,0,0,.371,0,.48.48,0,0,0,.262-.393.546.546,0,0,0,0-.349.415.415,0,0,0,0-.153v-.131a1.55,1.55,0,0,0,.284-.262.371.371,0,0,0,0,.153,1.942,1.942,0,0,0,0,.327v1.812a2.772,2.772,0,0,0,0,.48,1.7,1.7,0,0,0,0,.306l.131.153v.349a.917.917,0,0,0,.131.589.284.284,0,0,0,.24.109v.153a.633.633,0,0,0,1.07.458Zm-.742-6.985a.415.415,0,0,0-.175,0,.524.524,0,0,0,.2-.175.436.436,0,0,0,0,.153ZM91.345,105.469Zm-.393,0h-.087a.349.349,0,0,0,.131-.175ZM93.637,101.365Zm5.719-12.094a.611.611,0,0,0,0,.218h.109Zm.917,1a.328.328,0,0,0,0,.218.7.7,0,0,0-.218-.218H99.75v-.131l.327.109h.109a.5.5,0,0,0,0,.218Zm3.384,0a.5.5,0,0,1,.153-.153h.2l-.218.131-.349.2Zm.9-.568h.153l-.349.175Zm-3.318,1.463-.306-.153-.262-.175a.5.5,0,0,0,.218-.109l.415-.24.24-.24.175-.175a.764.764,0,0,0,.24,0,.851.851,0,0,0,.349-.262.523.523,0,0,0,0-.218h.175a.524.524,0,0,0,0,.327v.109a.48.48,0,0,0,0,.415.546.546,0,0,0,.262.349.5.5,0,0,0,.349,0l-.327.218-.72.546-.109-.109-.175.175a.371.371,0,0,0,0-.218,2.009,2.009,0,0,0-.48-.24ZM27.429,84.032ZM86.674,118.545ZM95.58,97.763a.677.677,0,0,0,0,.546.742.742,0,0,0-.262.131h-.5a.218.218,0,0,0,0-.109L94.991,98a2.03,2.03,0,0,0,0-.218l.284-.415.218-.306a1.441,1.441,0,0,0,.175-.284,1.136,1.136,0,0,0,0-.393v-.153a.48.48,0,0,0,.131-.306.786.786,0,0,0,.48,0h.2a.568.568,0,0,0-.24.218.262.262,0,0,0,0,.218.415.415,0,0,0-.327.153.655.655,0,0,0,0,.349v.153a.546.546,0,0,1,0,.2.262.262,0,0,0-.109.109,1.485,1.485,0,0,0-.218.437Z" transform="translate(7.843 16.785)" fill="#368ef8"/>
      <g transform="matrix(1, 0, 0, 1, 0, 0)" filter="url(#_8009ce568730ac772e7697e0d9ea7fd7)">
        <path id="_8009ce568730ac772e7697e0d9ea7fd7-3" data-name="8009ce568730ac772e7697e0d9ea7fd7" d="M126.382,61.963a.764.764,0,0,0,.284-.306.917.917,0,0,0,0-.437,2.183,2.183,0,0,0-.284-.327h-.131a.415.415,0,0,0,0-.262.262.262,0,0,0,0-.2V60.26a.738.738,0,0,0-.218-.633.393.393,0,0,0-.437,0,.83.83,0,0,0,0-.218,1.4,1.4,0,0,0-.131-.24.437.437,0,0,0-.175-.458c-.153-.109-.306,0-.437,0l-.175.131.153-.24a.14.14,0,0,0-.131-.131v-.109a1.505,1.505,0,0,0,0-.393.676.676,0,0,0-.109-.218.415.415,0,0,0,0-.175.829.829,0,0,0-.262-.284.524.524,0,0,0-.218-.262v-.458a.851.851,0,0,0-.349-.327.611.611,0,0,0-.284,0v-.109h-.131v-.153a.24.24,0,0,0,.153-.2.7.7,0,0,0,0-.437.742.742,0,0,0,.131-.437.437.437,0,0,0-.153-.218.677.677,0,0,0,0-.262v-.109a.9.9,0,0,0,0-.349.808.808,0,0,0-.284-.262h-.131a.72.72,0,0,0,0-.218,1.616,1.616,0,0,0-.2-.262.808.808,0,0,0-.153-.262l-.917-.808a.589.589,0,0,0-.175-.153.306.306,0,0,0-.24,0l-.109-.153v-.175a.763.763,0,0,0,0-.175.524.524,0,0,0-.175-.24h-.218L119.287,34.5a.24.24,0,0,0,0-.2.218.218,0,0,0-.153,0,.524.524,0,0,0-.131-.2.48.48,0,0,0-.458,0l-.153.131a.546.546,0,0,0-.153-.175.589.589,0,0,0-.415,0,.7.7,0,0,0-.349.306.96.96,0,0,0-.437,0,.458.458,0,0,0-.262.175h-.131a.24.24,0,0,0-.218,0h-.153a.284.284,0,0,0-.24,0l-.568-.393h-.175a.24.24,0,0,0,0-.109.393.393,0,0,0-.131-.393c-.175-.131-.458,0-.5,0a.5.5,0,0,0-.175.2.458.458,0,0,0-.262-.153.415.415,0,0,0-.262-.24h-.2a.262.262,0,0,0-.218,0l-.262-.262a.655.655,0,0,0-.458,0l-.131-.109v-.218l-.24.153.175-.218a.5.5,0,0,0-.262-.218.458.458,0,0,0-.306,0,.371.371,0,0,0-.306,0,.284.284,0,0,0-.131.153.262.262,0,0,1,0-.109.589.589,0,0,0-.524-.109.437.437,0,0,0-.175,0,1.026,1.026,0,0,0-.109-.218.677.677,0,0,0-.2-.153.306.306,0,0,1-.131-.153.568.568,0,0,0-.218-.284.7.7,0,0,0-.437,0H109.7a.568.568,0,0,0-.2-.284.284.284,0,0,0-.262,0,.262.262,0,0,0,0-.109.829.829,0,0,0-.284-.218.917.917,0,0,0-.327,0h-.306a.458.458,0,0,0-.262-.109.5.5,0,0,0-.568.546v.153a.415.415,0,0,0-.262.175.32.32,0,0,0-.437.2h-.633a.48.48,0,0,0-.2-.153.546.546,0,0,0-.349,0h-.153a.393.393,0,0,0,0-.218.7.7,0,0,0-.306-.24.939.939,0,0,0-.437,0,.546.546,0,0,0-.327.218v.153a.371.371,0,0,0-.262,0,.415.415,0,0,0-.2.2.371.371,0,0,0-.262-.131.611.611,0,0,0-.437.262.437.437,0,0,0,0,.24.349.349,0,0,0-.153,0,.48.48,0,0,0-.72.131.437.437,0,0,0-.175-.175.546.546,0,0,0-.415,0,.458.458,0,0,0-.218.24.437.437,0,0,0-.24,0c-.131,0-.2.131-.262.24h-.284a.458.458,0,0,0-.589-.306.349.349,0,0,0-.2.153h-.131a1,1,0,0,0-.306.153.284.284,0,0,0,0,.153s-.306.131-.284.371a.327.327,0,0,0,.153.218v.109h-.153v-.109a.917.917,0,0,0-.327-.131.568.568,0,0,0-.306.109,1.266,1.266,0,0,0-.218.262.917.917,0,0,0,0,.349.741.741,0,0,0,0,.2.437.437,0,0,0,0-.175l-.24-.2-.153-.175a.371.371,0,0,0-.2-.262.633.633,0,0,0-.48,0h-.175a.917.917,0,0,0,0-.218.458.458,0,0,0-.284-.24.524.524,0,0,0-.327,0l-.109-.109a.524.524,0,0,0-.633-.458.546.546,0,0,0-.458-.175h-.109a.873.873,0,0,0-.437,0,.5.5,0,0,0-.327.306.633.633,0,0,0,0,.284.677.677,0,0,1,0,.2h-.131a.393.393,0,0,0,0-.218.611.611,0,0,0-.284-.24.7.7,0,0,0-.349,0,.458.458,0,0,0-.327.175.327.327,0,0,1,0-.131v-.2a.437.437,0,0,0,0-.24.677.677,0,0,0-.218-.415.568.568,0,0,0-.458,0,.611.611,0,0,0-.175.131h-.153c-.153,0-.262.131-.349.262a.567.567,0,0,0,0,.327,1.331,1.331,0,0,0,0,.262v.218a.393.393,0,0,0-.284,0,.415.415,0,0,0,0,.327.415.415,0,0,0-.284.131.546.546,0,0,0,0,.437.415.415,0,0,0,.131.175v.24h-.175a.24.24,0,0,1,0-.131V33.8a.5.5,0,0,0,.218-.284.808.808,0,0,0,0-.458l-.153-.24a.589.589,0,0,0-.458-.437.655.655,0,0,0-.458,0s-.2.153-.218.284a.306.306,0,0,0,0,.2l-.218-.109a.764.764,0,0,0-.437.109.917.917,0,0,0-.218.306v.218h-.131v-.109a.655.655,0,0,0,0-.218.939.939,0,0,0,0-.458.568.568,0,0,0-.349-.218,1.07,1.07,0,0,0-1.921.131c-.131,0-.2.153-.284.24V32.6a.939.939,0,0,0-.131-.393.983.983,0,0,0-.284-.24h-.2a.742.742,0,0,0-.262-.131.633.633,0,0,0-.568.458.5.5,0,0,0-.437.327,1.069,1.069,0,0,0-.153.24V33a.2.2,0,0,0-.131,0l-.109.109v.109l-.153-.153a.546.546,0,0,0-.306-.131.415.415,0,0,0,0-.284.2.2,0,0,0,0-.109.633.633,0,0,0,0-.415.677.677,0,0,0-.327-.327.873.873,0,0,0-.48,0,.48.48,0,0,0-.153.131h-.327l-.131-.131v-.131a.524.524,0,0,0,0-.2l-.24-.153H82.7a.677.677,0,0,0,.109-.218,1.026,1.026,0,0,0,0-.437.7.7,0,0,0-.415-.327.5.5,0,0,0-.437.109.393.393,0,0,0,0,.306h-.153a.677.677,0,0,0-.24-.175.96.96,0,0,0-.349,0H80.19s0-.131-.175-.175a.982.982,0,0,0-.393,0,.9.9,0,0,0-.393,0,.443.443,0,0,0-.218.524v.131a.327.327,0,0,0-.2,0,.524.524,0,0,0-.2.175l-.262.087L78.2,31.1v-.153a1.244,1.244,0,0,0-.175-.284.829.829,0,0,0-.349-.262,1,1,0,0,0-.349,0,.349.349,0,0,0-.262,0,.677.677,0,0,0-.349.218v.153h-.371a.9.9,0,0,0-.284-.218.829.829,0,0,0-.48,0l-.677-.218h-.153a.9.9,0,0,0-.24-.153.829.829,0,0,0-.5,0,.524.524,0,0,0-.262.153.524.524,0,0,0-.327-.153.371.371,0,0,0-.218,0,.109.109,0,0,0-.109,0,.284.284,0,0,0-.306,0,.808.808,0,0,0,0-.327.851.851,0,0,0-.175-.218,1.7,1.7,0,0,1,0-.2.72.72,0,0,0,0-.371.458.458,0,0,0-.24-.175.524.524,0,0,0,0-.218.546.546,0,0,0,0-.262.568.568,0,0,0-.262-.24.655.655,0,0,0-.349,0,.349.349,0,0,0,0-.218.461.461,0,0,0-.83-.065.742.742,0,0,0-.153.415.48.48,0,0,0,0,.284l-1.157-.437A.24.24,0,0,0,69.494,28a.589.589,0,0,0-.415,0,.48.48,0,0,0-.48,0,.349.349,0,0,0-.153.306v.109h-.48V28.28l-.7-.131-.2-.131h-.153l-.2-.153V27.6l-.262-.24h-.109V27.21c0-.153-.175-.218-.2-.218l-.218-.131-.109.24v-.284a.633.633,0,0,0-.371,0,.284.284,0,0,0-.2.131L64.582,6.014a.262.262,0,0,0-.262-.284l-26.2.393h-.306a.262.262,0,0,0-.262.262L37.3,55.436,4.857,54.344a2.62,2.62,0,0,0-.437,0s-.284.109-.349.284a.524.524,0,0,0,0,.327v.175a.306.306,0,0,0,0,.153.437.437,0,0,0-.175.458.5.5,0,0,0,.24.349.7.7,0,0,0,0,.437h.131a.262.262,0,0,0,0,.2.371.371,0,0,0,.24,0l.24.109a1.659,1.659,0,0,0,.2.393.633.633,0,0,0,.458.262.393.393,0,0,0,.306-.2l.175.131h.437V57.6l.131.175v.437a.764.764,0,0,0,.131.2v.262a1.4,1.4,0,0,1,0,.153.546.546,0,0,0,.131.327.458.458,0,0,0,.262.153.437.437,0,0,0,0,.153l.109.175a.24.24,0,0,1,0,.131.546.546,0,0,0,0,.262,1,1,0,0,0,.982.873.764.764,0,0,0,.24,0v.131a.786.786,0,0,0,.306.218h.2l.131.109a.677.677,0,0,0,.306.2.48.48,0,0,0,.306,0h.131a.786.786,0,0,0,.218.24.5.5,0,0,0,.24,0,.524.524,0,0,0,0,.306.611.611,0,0,0,.262.218.524.524,0,0,0,.2.175.546.546,0,0,0,.262,0,.415.415,0,0,0,0,.153l.175.327a.655.655,0,0,0,.175.175.611.611,0,0,0,.437.48H11.8l.131.153.393.2h.546a.458.458,0,0,0,.131.175.437.437,0,0,0,.284,0l.131.2a.655.655,0,0,0,0,.284,1,1,0,0,0,.306.437.633.633,0,0,0,.284,0v.262l.2.262a1.877,1.877,0,0,0,.393.349h.218a.546.546,0,0,0,.109.371.5.5,0,0,0,.371,0,.72.72,0,0,0,.24.2h.262a.437.437,0,0,0,.327.2.24.24,0,0,0,.175,0l.218.109a.48.48,0,0,0,.218.2.677.677,0,0,0,.284,0,.786.786,0,0,0,0,.24,1.135,1.135,0,0,0,.284.262,1.223,1.223,0,0,0,.327.175h.349v.109a.437.437,0,0,0,0,.24.96.96,0,0,0,.284.393.633.633,0,0,0,.349,0l.131.262v.677a.524.524,0,0,1,0,.2.458.458,0,0,0,0,.175.633.633,0,0,0,0,.2v.109a.589.589,0,0,0,0,.284.546.546,0,0,0,.2.371,1.135,1.135,0,0,0,.284.131.349.349,0,0,0,0,.284.371.371,0,0,0,.262.2.437.437,0,0,1,.131.153.415.415,0,0,0,0,.393.393.393,0,0,0,.327.153s0,0,0,.131v.218a.939.939,0,0,0,.2.218v.284a.764.764,0,0,0,0,.306.546.546,0,0,0,.131.306h-.131a.72.72,0,0,0-.131.306,1.091,1.091,0,0,0,0,.458.764.764,0,0,0,.175.262.458.458,0,0,0,0,.262.764.764,0,0,0,.131.371s0,.262,0,.393a.764.764,0,0,0,0,.24,1.309,1.309,0,0,0,.175.175.524.524,0,0,1,0,.2.917.917,0,0,0,0,.218.677.677,0,0,0,.24.2h.109a1.135,1.135,0,0,1,.153.393v.131a.9.9,0,0,0,0,.349.9.9,0,0,0,0,.2q0,.1,0,.2a1.528,1.528,0,0,0,.218.349l.24.175h.131v.109a.677.677,0,0,0,.2.24l.24.131h.109a.961.961,0,0,0,.2.24.83.83,0,0,0,.218,0,.851.851,0,0,0,.24.131.589.589,0,0,0,.284,0h.175l2.729,3.536a1.069,1.069,0,0,1,.175.284.568.568,0,0,0,.109.262s.175.109.2,0a.5.5,0,0,0,0,.24,1.309,1.309,0,0,0,.175.175.7.7,0,0,0,.218.218.546.546,0,0,0,.262,0l.109.131.175.175h.2a.764.764,0,0,1,.2.131.327.327,0,0,1,.131,0,.72.72,0,0,0,.284.153h1.681v.153a1.353,1.353,0,0,0,.175.262.851.851,0,0,0,.306.218,1,1,0,0,0,.306.153h.175a.589.589,0,0,0,.218.175.567.567,0,0,0,.327,0,.524.524,0,0,0,.262.153.589.589,0,0,0,.306,0v.131l.2.131a.524.524,0,0,0,.131.24.458.458,0,0,0,.218.131v.109a.437.437,0,0,0,.153.2.72.72,0,0,0,.349.109H33.1a.808.808,0,0,0,.349,0,.437.437,0,0,0,.24.131l.153.153a.9.9,0,0,0,.415,0h.677a1.288,1.288,0,0,0,.415.109.9.9,0,0,0,.415-.2.961.961,0,0,0,0-.327l.109-.131a2.858,2.858,0,0,0,.109-.327.284.284,0,0,0,0-.131h.109a.939.939,0,0,0,.306-.175.546.546,0,0,0,0-.284.437.437,0,0,0,.131-.2.393.393,0,0,0,0-.218h.2a.567.567,0,0,0,.24-.153h2.1a.677.677,0,0,0,.284-.175.7.7,0,0,0,.131-.48.5.5,0,0,0-.262-.262.778.778,0,0,1,.131-.327v-.2a1.113,1.113,0,0,0,.327-.393,1.048,1.048,0,0,0,.109-.371v-.24a1,1,0,0,1,0-.284q0-.1,0-.2v-.262a.393.393,0,0,1,0-.131,1.136,1.136,0,0,0,.2-.262.676.676,0,0,0,0-.218.524.524,0,0,0,.306-.24.437.437,0,0,0,0-.371.873.873,0,0,0,.24-.306.633.633,0,0,0,0-.284v-.153a.611.611,0,0,0,.284,0,.48.48,0,0,0,.306-.175.349.349,0,0,0,0-.153h.131a.415.415,0,0,0,.2,0,.655.655,0,0,0,.415-.153l.153-.218H42.4a.458.458,0,0,0,.306.153.611.611,0,0,0,.415-.2.9.9,0,0,0,.2-.415v-.2a1.506,1.506,0,0,0,0-.218l.175-.153h0l.109.109.262.175a1.157,1.157,0,0,0,.655.153.546.546,0,0,0,.109.175,1,1,0,0,0,.393.218h.349a.393.393,0,0,0,.153,0,.764.764,0,0,0,.393,0h.677a.371.371,0,0,0,.284.2.327.327,0,0,0,.306-.131.458.458,0,0,0,.262,0h.393a.458.458,0,0,0,.306,0,.2.2,0,0,0,.153,0,.393.393,0,0,0,.175.153,1.31,1.31,0,0,0,.5,0h.24a.546.546,0,0,0,.284,0,.458.458,0,0,0,.284-.2h.437a.524.524,0,0,0,.458.131.48.48,0,0,0,.284-.131.349.349,0,0,0,.306,0v.109a.917.917,0,0,0,.153.284.589.589,0,0,0,.109.306.677.677,0,0,0,.437.2.327.327,0,0,0,0,.218.568.568,0,0,0,.284.5.415.415,0,0,0,.371,0,.589.589,0,0,0,0,.437.72.72,0,0,0,.415.327h.458v.153a.917.917,0,0,0,.349.24h.7a.327.327,0,0,0,0,.153,1.463,1.463,0,0,0,.2.5.917.917,0,0,0,.349.24h.153l.109.109h.2a.327.327,0,0,1,.153,0l.153.153h.2a.786.786,0,0,0,.218.262.742.742,0,0,0,.327.131H56.9a1.462,1.462,0,0,1,.153.24,1.113,1.113,0,0,0,0,.284.742.742,0,0,0,.24.371h.153v.153a.7.7,0,0,0,.284.153h.153v2.685a1.026,1.026,0,0,0,0,.349.764.764,0,0,1,0,.131.371.371,0,0,1,0,.109,1.245,1.245,0,0,1,0,.284.524.524,0,0,0,0,.2.9.9,0,0,0,0,.262.415.415,0,0,0,0,.262.524.524,0,0,0,.349.153.873.873,0,0,0,0,.284.284.284,0,0,0,0,.131.48.48,0,0,0,.284.24v.175a1.244,1.244,0,0,0,0,.349l.153.131a.786.786,0,0,0,0,.24,1.31,1.31,0,0,0,.2.633.786.786,0,0,0,.327.175h.175a.764.764,0,0,0,.131.349.742.742,0,0,0,.262.131.371.371,0,0,0,0,.153.96.96,0,0,0,0,.349.786.786,0,0,0,.284.327,1.62,1.62,0,1,0,3.034,1.135.982.982,0,0,0,0,.437.5.5,0,0,0,.2.24v.175l.131.131a.829.829,0,0,0,0,.327,1.31,1.31,0,0,0,.2.284.458.458,0,0,0,.24.262.349.349,0,0,0,.262,0,.306.306,0,0,0,0,.2.568.568,0,0,0,.306.327h.175a.393.393,0,0,0,.218.153.655.655,0,0,0,.262,0,.48.48,0,0,1,.218,0h.109v.109q-.005.109,0,.218a1.507,1.507,0,0,0,.24.284.437.437,0,0,0,.24,0v.175c0,.065,0,.262.153.327s.153.24.262.284a.546.546,0,0,0,.327,0,.524.524,0,0,1,0,.2.568.568,0,0,0,0,.262c0,.153.218.262.262.306a.568.568,0,0,0,0,.458l.2.131a.568.568,0,0,0,0,.306c0,.218.306.349.306.371a.393.393,0,0,0,.131.2.589.589,0,0,0,.349,0,.546.546,0,0,0,.131.284.415.415,0,0,0,.262,0,.459.459,0,0,0,0,.131.611.611,0,0,0,.153.2v.131a.546.546,0,0,0,.24.262.415.415,0,0,0,.327,0,.7.7,0,0,0,.5.327.5.5,0,0,0,.24,0,.437.437,0,0,0,.24.24.306.306,0,0,0,.306,0,.327.327,0,0,0,0,.218.546.546,0,0,0,0,.153.5.5,0,0,0,0,.393.524.524,0,0,0,.327.262.9.9,0,0,0,0,.349,1.093,1.093,0,0,0,1.222,1.812v.153a.349.349,0,0,0,0,.153.612.612,0,0,0,0,.2.5.5,0,0,0-.218.153.568.568,0,0,0,0,.48c0,.153.284.218.393.24,0,.131,0,.437.349.458h.175a.546.546,0,0,0,0,.262.284.284,0,0,0,.131.175.633.633,0,0,1,0,.2.764.764,0,0,0-.109.175.306.306,0,0,0,0,.24.458.458,0,0,0,0,.153.436.436,0,0,0,0,.24.415.415,0,0,0,0,.175,1.223,1.223,0,0,0,0,.284h.284l-.262.109a.851.851,0,0,0,.131.393.546.546,0,0,0,.306.131.458.458,0,0,0,.153.284.72.72,0,0,0,.131.415.462.462,0,0,1,.546.48.589.589,0,0,0,.393.175h.153a.437.437,0,0,0,0,.218.96.96,0,0,0,.175.24v.153a.546.546,0,0,0,0,.262.48.48,0,0,0,.175.284h.175a.67.67,0,0,0,.131.546.894.894,0,0,0,0,.175.212.212,0,0,0,.131.175v.96h0a.742.742,0,0,0,0,.218,1.4,1.4,0,0,0,.153.524.524.524,0,0,0,.24.175h.175a.7.7,0,0,1,.153.131H76a.677.677,0,0,0-.175.24.764.764,0,0,0,.153.5.262.262,0,0,0,.2.393.5.5,0,0,0,.24.24.589.589,0,0,0,.458,0h.546a.349.349,0,0,0,.2.2.327.327,0,0,0,.284,0,.808.808,0,0,0,.327.109.327.327,0,0,0,.218,0,.764.764,0,0,0,.262,0,.524.524,0,0,0,.218-.131.546.546,0,0,0,.218.327.458.458,0,0,0,.24,0,.524.524,0,0,0,.131.24.327.327,0,0,0,.24,0s0,.2.153.24a.306.306,0,0,0,.262,0,.327.327,0,0,0,0,.262.415.415,0,0,0,.415,0,.48.48,0,0,0,.262-.131.327.327,0,0,1,.175,0,.415.415,0,0,0,.24.175h.393a.611.611,0,0,0,.327,0h.153a1.092,1.092,0,0,0,.284.24h.153a.677.677,0,0,0,.218.218.7.7,0,0,0,.306,0,.568.568,0,0,0,.262.306.655.655,0,0,0,.393,0,.5.5,0,0,0,.306.371.48.48,0,0,0,.349,0,.393.393,0,0,0,.306.175.262.262,0,0,0,.218,0h.131a.655.655,0,0,0,.415,0,.284.284,0,0,0,.131-.109h.24a.546.546,0,0,0,.415,0,.458.458,0,0,0,.24-.218h.349a.655.655,0,0,0,.349,0,.415.415,0,0,0,.327,0h.131l.218.153a.982.982,0,0,0,.48,0,.415.415,0,0,0,.131.153.786.786,0,0,0,.437.109h.808l.153.109a1.2,1.2,0,0,1,.218.24v.131a.96.96,0,0,0,1.353.96.83.83,0,0,0,.327,0,.48.48,0,0,0,.109.24,1.026,1.026,0,0,0,.458.24h.284a.873.873,0,0,0,.48.371h.175a.7.7,0,0,0,.306,0,1.157,1.157,0,0,0,.349-.393.961.961,0,0,0,0-.437v-.131h.131l.2-.153a.24.24,0,0,0,.175,0,.393.393,0,0,0,.175-.153h.371a.524.524,0,0,0,.24-.131h.393a.611.611,0,0,0,.393,0,.808.808,0,0,0,.175-.437.7.7,0,0,0-.175-.458c.131-.131,0-.349,0-.524v-.677a12.045,12.045,0,0,0-.24-1.353,5.429,5.429,0,0,0-.218-.7l-.2-.589a2.069,2.069,0,0,0-.131-.437l-.393-.83v-.218a7.071,7.071,0,0,1-.284-.72l-.131-.306c0-.2-.2-.415-.24-.546s-.218-.589-.284-.786l-.262-.982a13.464,13.464,0,0,0-.24-1.353,10.614,10.614,0,0,1,0-1.179v-.9c0-.218.131-1,.153-1.2.109-.7.218-1.2.284-1.441s.262-.764.371-1.07c.109-.327.371-.96.5-1.266v-.131c.109-.218.24-.568.327-.72l.262-.437.2-.284.131-.218.2-.327A.393.393,0,0,0,96,98.942a.568.568,0,0,0,0-.349H96.1a.7.7,0,0,0,.327-.415l.131-.284v-.2a2.183,2.183,0,0,1,.24-.371l.24-.24.175-.175.371-.415.371-.393.437-.48a14.122,14.122,0,0,1,1.113-.939,8.4,8.4,0,0,1,.742-.568l.415-.218a2.816,2.816,0,0,0,.72-.393s.327-.327.327-.546a.306.306,0,0,0,0-.153H102s.262-.24.349-.306l.153-.175.153-.153h.262l.284-.24.327-.24.546-.306.218-.109.306-.153.306-.2.175-.109.808-.458.327-.175.589-.306.5-.393.415-.306.327-.2.371-.218.589-.437.306-.24.5-.349.153-.109.24-.2h.284l.306-.131.218-.218.153-.175v-.131a2.053,2.053,0,0,1,.218-.218l.175-.175.24-.24.5-.48.24-.24a1.943,1.943,0,0,0,.371-.327l.306-.371.175-.218c0-.131.284-.349.371-.458l.349-.24.24-.2.24-.2.284-.262.349-.284.284-.2.371-.306.153-.131a.808.808,0,0,1,.2-.2.829.829,0,0,0,.306-.24.568.568,0,0,0,0-.546v-.2l.327-.284.371-.306.458-.306.371-.175.349-.175.284-.175.327-.175.349-.175.415-.218.48-.284.349-.2.764-.437.371-.2.437-.218a2.183,2.183,0,0,1,.5-.153H124.2a3.4,3.4,0,0,0,.48-.218,1,1,0,0,0,.153-.153.24.24,0,0,0,0-.327,1.9,1.9,0,0,0-.175-.306l-.262-.2h-.131l-.065-1.2h-.044a.851.851,0,0,0,.175-.218h.109a1.44,1.44,0,0,0,.306-.327,2.183,2.183,0,0,0,.131-.48V73.38a1.616,1.616,0,0,1,.175-.327v-.131l.109-.153.131-.153a.507.507,0,0,0,.2-.611h.131a1.135,1.135,0,0,0,0-.655.982.982,0,0,0-.218-.306.546.546,0,0,0,0-.327.9.9,0,0,0,0-.371h-.24l.218-.175.022-.546a1.725,1.725,0,0,0-.284-.284v-.349a1.157,1.157,0,0,1,.24-.284.589.589,0,0,0,.262-.218.7.7,0,0,0,0-.371,1.4,1.4,0,0,0-.131-.24.829.829,0,0,0,0-.327l-.175-.175V67.2a.611.611,0,0,0,.262-.218.546.546,0,0,0,0-.371V66.5h.175a.917.917,0,0,0,.262-.306.96.96,0,0,0,0-.349v-.262h0a.611.611,0,0,0,.131-.2.306.306,0,0,0,0-.24l.109-.109a.961.961,0,0,0,.131-.349,1.66,1.66,0,0,0,0-.327.35.35,0,0,0,0-.175v-.131a.458.458,0,0,0,.284-.175.568.568,0,0,0,0-.5,3.391,3.391,0,0,0-.284-1.419Zm-9.976,17.7-.24.24s-.153.153-.153.24c-.262,0-.349.327-.371.437a.458.458,0,0,0,0,.262v-.131a2.355,2.355,0,0,0-.175-.175.917.917,0,0,0-.131-.568.72.72,0,0,0-.284-.2.437.437,0,0,0,0-.437.568.568,0,0,0-.5-.175h-.437a.677.677,0,0,0,.175-.24.655.655,0,0,0,0-.524.415.415,0,0,0-.153-.131V78.16a.72.72,0,0,0,.437.24.7.7,0,0,0,.415-.2,1.179,1.179,0,0,0,.306-.349.83.83,0,0,0,0-.327l.153-.2.284-.306h.153a2.314,2.314,0,0,1,.262.393v.568a.9.9,0,0,1,0,.218.742.742,0,0,1,0,.24l-.153.24a.611.611,0,0,0-.306.808.9.9,0,0,0,.611.262,1.266,1.266,0,0,0,.458-.153h.218a.982.982,0,0,0-.262.262v.153ZM114.223,77.287ZM100.907,92.568a.371.371,0,0,0-.131.24h-.153a.48.48,0,0,0-.24,0,.764.764,0,0,0-.284.175l-.415.218a.415.415,0,0,0-.218,0,1.092,1.092,0,0,0-.24.218.59.59,0,0,0-.218.175.524.524,0,0,0-.131.175h-.153a.393.393,0,0,0-.131.2H98a.72.72,0,0,0,0-.48.415.415,0,0,0-.284-.262l.284.415a.764.764,0,0,0,0-.437.48.48,0,0,0,0-.218V92.83h.284a.349.349,0,0,0,0,.153.633.633,0,0,0,0,.327.764.764,0,0,0,.5.262.655.655,0,0,0,.393-.175h.109a.5.5,0,0,0,.5-.24l.284-.218.415-.218h.218l.349-.153a.59.59,0,0,0-.065-.087ZM97.152,95.3Zm-3.034,5.436h0Zm0-.546a.568.568,0,0,0-.153.24.655.655,0,0,0-.327-.24h-.393l-.327-.218c-.2-.131-.306-.218-.327-.284a.459.459,0,0,1,0-.153,1.55,1.55,0,0,1,.2-.371l.284-.24h.458a.764.764,0,0,0,0,.284.742.742,0,0,0,.633.262s.153,0,.284-.218a.218.218,0,0,0,.175,0,1,1,0,0,0-.153.153l-.218.349v.131Zm-.851,11.853a.48.48,0,0,0,0,.175v.284a1.026,1.026,0,0,0,0,.371.611.611,0,0,0,.24.284v.327l.175.2a.284.284,0,0,1,0,.109,1.245,1.245,0,0,0,0,.284,2.575,2.575,0,0,0,.218.415v.131a2.924,2.924,0,0,1,.153.393,1.551,1.551,0,0,1,0,.371v.873a4.866,4.866,0,0,1,0,.589.742.742,0,0,0,0,.218.655.655,0,0,0,0,.218h-.568a.765.765,0,0,0,0-.131.677.677,0,0,0-.109-.218.306.306,0,0,0,0-.131.742.742,0,0,0,0-.415.15.15,0,0,0-.153-.153.415.415,0,0,0,0-.2.568.568,0,0,0-.24-.546h-.2a.415.415,0,0,0,.218-.327.524.524,0,0,0-.327-.458.371.371,0,0,0-.218,0v-.131a.5.5,0,0,0-.306-.437.349.349,0,0,0,0-.2.393.393,0,0,0-.2-.131.7.7,0,0,0,0-.2,2.183,2.183,0,0,0,0-.415,2.314,2.314,0,0,0,0-.393l-.175-.284v-.96l-.2-.48a2.6,2.6,0,0,0-.175-.437l-.371-.48a1.135,1.135,0,0,0-.24-.218v-.175a1.921,1.921,0,0,0,0-.5.808.808,0,0,0-.109-.24v-.677c0-.131,0,0,.131,0a.546.546,0,0,0,.371,0,.48.48,0,0,0,.262-.393.546.546,0,0,0,0-.349.415.415,0,0,0,0-.153v-.131a1.55,1.55,0,0,0,.284-.262.371.371,0,0,0,0,.153,1.942,1.942,0,0,0,0,.327v1.812a2.772,2.772,0,0,0,0,.48,1.7,1.7,0,0,0,0,.306l.131.153v.349a.917.917,0,0,0,.131.589.284.284,0,0,0,.24.109v.153a.633.633,0,0,0,1.07.458Zm-.742-6.985a.415.415,0,0,0-.175,0,.524.524,0,0,0,.2-.175.436.436,0,0,0,0,.153ZM91.345,105.469Zm-.393,0h-.087a.349.349,0,0,0,.131-.175ZM93.637,101.365Zm5.719-12.094a.611.611,0,0,0,0,.218h.109Zm.917,1a.328.328,0,0,0,0,.218.7.7,0,0,0-.218-.218H99.75v-.131l.327.109h.109a.5.5,0,0,0,0,.218Zm3.384,0a.5.5,0,0,1,.153-.153h.2l-.218.131-.349.2Zm.9-.568h.153l-.349.175Zm-3.318,1.463-.306-.153-.262-.175a.5.5,0,0,0,.218-.109l.415-.24.24-.24.175-.175a.764.764,0,0,0,.24,0,.851.851,0,0,0,.349-.262.523.523,0,0,0,0-.218h.175a.524.524,0,0,0,0,.327v.109a.48.48,0,0,0,0,.415.546.546,0,0,0,.262.349.5.5,0,0,0,.349,0l-.327.218-.72.546-.109-.109-.175.175a.371.371,0,0,0,0-.218,2.009,2.009,0,0,0-.48-.24ZM27.429,84.032ZM86.674,118.545ZM95.58,97.763a.677.677,0,0,0,0,.546.742.742,0,0,0-.262.131h-.5a.218.218,0,0,0,0-.109L94.991,98a2.03,2.03,0,0,0,0-.218l.284-.415.218-.306a1.441,1.441,0,0,0,.175-.284,1.136,1.136,0,0,0,0-.393v-.153a.48.48,0,0,0,.131-.306.786.786,0,0,0,.48,0h.2a.568.568,0,0,0-.24.218.262.262,0,0,0,0,.218.415.415,0,0,0-.327.153.655.655,0,0,0,0,.349v.153a.546.546,0,0,1,0,.2.262.262,0,0,0-.109.109,1.485,1.485,0,0,0-.218.437Z" transform="translate(7.84 16.78)" fill="#fff"/>
      </g>
    </g>
  </g>
</svg>
