<svg xmlns="http://www.w3.org/2000/svg" xmlns:xlink="http://www.w3.org/1999/xlink" width="160" height="160" viewBox="0 0 160 160">
  <defs>
    <clipPath id="clip-sales-revenue-icon">
      <rect width="160" height="160"/>
    </clipPath>
  </defs>
  <g id="sales-revenue-icon" clip-path="url(#clip-sales-revenue-icon)">
    <g id="ae2526ad6f931a42317a115e40289904" transform="translate(11.324 11.324)">
      <path id="Path_956" data-name="Path 956" d="M26.178,0m0,0A17.216,17.216,0,0,0,9,17.169V51.507a2.456,2.456,0,0,0,2.466,2.453H23.725v7.371A12.224,12.224,0,0,1,11.462,73.582a2.453,2.453,0,0,0,0,4.905H26.178A12.226,12.226,0,0,1,38.442,90.751v34.338a7.311,7.311,0,0,1-7.358,7.358v4.905H99.76a17.2,17.2,0,0,0,17.169-17.169V17.169A17.2,17.2,0,0,0,99.76,0Z" transform="translate(20.424)" fill="#fff"/>
      <path id="Path_957" data-name="Path 957" d="M25.5,0m0,0V137.353H62.291A17.2,17.2,0,0,0,79.46,120.184V17.169A17.2,17.2,0,0,0,62.291,0Z" transform="translate(57.893)" fill="#f2f8ff"/>
      <path id="Path_958" data-name="Path 958" d="M17.169,22.5m0,0A17.2,17.2,0,0,0,0,39.669V74.007A12.3,12.3,0,0,0,12.264,86.271H51.507A12.3,12.3,0,0,0,63.771,74.007V39.669A17.2,17.2,0,0,0,46.6,22.5Z" transform="translate(0 51.082)" fill="#368ef8"/>
      <path id="Path_959" data-name="Path 959" d="M9.75,22.5m0,0V86.271H29.372A12.3,12.3,0,0,0,41.635,74.007V39.669A17.2,17.2,0,0,0,24.466,22.5Z" transform="translate(22.135 51.082)" fill="#006ff5"/>
      <path id="Path_960" data-name="Path 960" d="M18.255,25.5m0,0a2.473,2.473,0,0,0-2.466,2.453v2.453h-2.44A7.383,7.383,0,0,0,6,37.764v4.905a7.372,7.372,0,0,0,7.345,7.345H23.16a2.432,2.432,0,0,1,2.453,2.466v4.905a2.413,2.413,0,0,1-2.453,2.453H13.349a2.4,2.4,0,0,1-2.44-2.453,2.453,2.453,0,1,0-4.905,0,7.383,7.383,0,0,0,7.345,7.358h2.44V67.2a2.453,2.453,0,1,0,4.905,0V64.744H23.16a7.4,7.4,0,0,0,7.358-7.358V52.48a7.406,7.406,0,0,0-7.358-7.371H13.349a2.4,2.4,0,0,1-2.44-2.44V37.764a2.4,2.4,0,0,1,2.44-2.44H23.16a2.41,2.41,0,0,1,2.453,2.44,2.448,2.448,0,0,0,2.453,2.466,2.473,2.473,0,0,0,2.453-2.466,7.4,7.4,0,0,0-7.358-7.358H20.694V27.953A2.459,2.459,0,0,0,18.255,25.5Z" transform="translate(13.631 57.893)" fill="#fff"/>
      <path id="Path_961" data-name="Path 961" d="M9.75,45.109m0,0v4.905h4.905a2.432,2.432,0,0,1,2.453,2.466v4.905a2.413,2.413,0,0,1-2.453,2.453H9.75v9.811A2.442,2.442,0,0,0,12.19,67.2V64.744h2.466a7.4,7.4,0,0,0,7.358-7.358V52.48a7.406,7.406,0,0,0-7.358-7.371Zm0-19.609v9.824h4.905a2.41,2.41,0,0,1,2.453,2.44,2.448,2.448,0,0,0,2.453,2.466,2.473,2.473,0,0,0,2.453-2.466,7.4,7.4,0,0,0-7.358-7.358H12.19V27.953A2.459,2.459,0,0,0,9.75,25.5Z" transform="translate(22.135 57.893)" fill="#fff"/>
      <path id="Path_962" data-name="Path 962" d="M6.953,15m0,0A2.454,2.454,0,0,0,4.5,17.453v9.824a17.169,17.169,0,0,0,34.338,0V17.453A2.454,2.454,0,0,0,36.385,15Z" transform="translate(10.216 34.055)" fill="#368ef8"/>
      <path id="Path_963" data-name="Path 963" d="M50.014,6a2.448,2.448,0,0,0-2.44,2.44V52.58a2.454,2.454,0,0,0,2.44,2.466H62.291a2.465,2.465,0,0,0,2.453-2.466V8.444A2.459,2.459,0,0,0,62.291,6ZM27.953,20.694A2.473,2.473,0,0,0,25.5,23.16V52.58a2.465,2.465,0,0,0,2.453,2.466H40.229a2.454,2.454,0,0,0,2.44-2.466V23.16a2.462,2.462,0,0,0-2.44-2.466Z" transform="translate(57.893 13.631)" fill="#9ac8ff"/>
      <path id="Path_964" data-name="Path 964" d="M21.194,15m0,0a2.434,2.434,0,0,0-2.44,2.453v14.7a2.445,2.445,0,0,0,2.44,2.466H33.457a2.448,2.448,0,0,0,2.453-2.466v-14.7A2.437,2.437,0,0,0,33.457,15Z" transform="translate(42.577 34.054)" fill="#9ac8ff"/>
      <path id="Path_965" data-name="Path 965" d="M9.75,15m0,0V44.433A17.194,17.194,0,0,0,26.919,27.277V17.453A2.454,2.454,0,0,0,24.466,15Z" transform="translate(22.135 34.055)" fill="#006ff5"/>
    </g>
    <path id="Path_968" data-name="Path 968" d="M67.745,2h-30a2.5,2.5,0,0,0-2.5,2.5v20l-1.031.825h0L29,29.5h6.249v3.75a2.5,2.5,0,0,0,2.5,2.5h30a2.5,2.5,0,0,0,2.5-2.5V4.5A2.5,2.5,0,0,0,67.745,2ZM46.185,15.748H44.311A3.92,3.92,0,0,1,40.249,12,3.875,3.875,0,0,1,44,8.278V7h2.5V8.278A3.875,3.875,0,0,1,50.247,12h-2.5a1.452,1.452,0,0,0-1.562-1.25H44.311A1.452,1.452,0,0,0,42.748,12a1.452,1.452,0,0,0,1.562,1.25h1.875A3.92,3.92,0,0,1,50.247,17a3.875,3.875,0,0,1-3.75,3.721V22H44V20.719A3.875,3.875,0,0,1,40.249,17h2.5a1.452,1.452,0,0,0,1.562,1.25h1.875A1.452,1.452,0,0,0,47.748,17a1.452,1.452,0,0,0-1.562-1.25Zm16.927-2.866L61.5,11.266V14.5A16.267,16.267,0,0,1,45.248,30.747h-5v-2.5h5A13.765,13.765,0,0,0,59,14.5V11.266L57.38,12.882l-1.767-1.767,3.75-3.75a1.25,1.25,0,0,1,1.767,0l3.75,3.75Z" transform="translate(53.565 90.433)" fill="#1c1c93"/>
  </g>
</svg>
